<svg width="26" height="32" viewBox="0 0 26 32" fill="none" xmlns="http://www.w3.org/2000/svg">
<path d="M8.16725 29.9202C17.979 29.9202 23.3464 19.9147 23.3464 11.2532C23.3464 10.9732 23.3464 10.6892 23.3366 10.4092C24.3816 9.47823 25.2835 8.32562 26 7.00539C25.0239 7.53506 23.9895 7.88415 22.9304 8.04133C24.046 7.22065 24.8815 5.92938 25.2817 4.40753C24.2336 5.17173 23.0864 5.7082 21.8904 5.99344C21.0863 4.93955 20.0223 4.24137 18.8631 4.00706C17.704 3.77275 16.5144 4.01539 15.4787 4.69739C14.4429 5.37938 13.6188 6.46267 13.134 7.77947C12.6492 9.09626 12.5307 10.5731 12.7969 11.9811C10.6758 11.8502 8.60083 11.1721 6.70644 9.99071C4.81206 8.80933 3.14061 7.15107 1.8005 5.12349C1.12018 6.56958 0.912557 8.28012 1.2198 9.90776C1.52704 11.5354 2.32611 12.9581 3.45475 13.887C2.609 13.8517 1.78185 13.5722 1.04 13.0711V13.1611C1.04146 14.6759 1.46787 16.1437 2.24717 17.3164C3.02647 18.489 4.11084 19.2945 5.317 19.5967C4.85918 19.7519 4.38625 19.8293 3.91138 19.8267C3.5766 19.828 3.24249 19.7898 2.91363 19.7127C3.25453 21.0168 3.91832 22.1569 4.81203 22.9735C5.70573 23.7901 6.78459 24.2422 7.8975 24.2665C6.0069 26.094 3.67153 27.0851 1.2675 27.0803C0.843896 27.0825 0.420588 27.0525 0 26.9903C2.43996 28.9047 5.27361 29.9213 8.16725 29.9202Z" fill="white"/>
</svg>
